<svg xmlns="http://www.w3.org/2000/svg" width="332.214" height="549.086" viewBox="0 0 332.214 549.086"><path d="M141.214 549.086H0c25.287-79.144 50.74-158.295 75.628-237.547 1.045-7.148-10.361-9.523-13.943-15.302-18.806-17.474-33.62-39.183-41.62-63.683-6.847-19.799-9.257-40.828-7.267-61.665 1.537-30.27 14.224-59.37 32.569-83.23 24.242-29.96 59.677-51.33 98.16-56.147-3 12.116-5.696 24.302-8.333 36.502-29.263 7.59-55.084 27.262-71.011 52.833-12.544 20.893-19.208 45.266-17.3 69.656.365 21.674 8.936 42.804 20.635 60.835 12.011 17.188 28.5 30.538 46.92 40.36 5.949 3.626-2.622 12.914-2.674 18.982-21.098 68.25-43.271 136.294-64.55 204.406h94zm12.076 0c-.573-30.902.364-62.164-1.148-92.842-5.391-13.228-13.591-24.65-23.055-35.26 9.63-27.236 10.606-56.625 11.451-85.233.69-77.895.473-155.854 1.727-233.708C146.488 67.25 153.42 32.438 166.966 0c12.285 33.465 20.833 68.238 24.146 103.774 1.424 83.077.887 166.27 2.071 249.37 1.417 23.13 3.913 46.296 11.067 68.442-11.774 12.436-22.457 27.43-24.011 44.85l-.025 48.65h105.135c-23.266-73.92-46.906-147.734-70.21-221.638 23.324-11.98 44.222-29.717 56.507-53.182 12.903-23.905 17.785-52.386 12.096-79.072-6.713-37.255-32.687-70.2-66.886-86.163-6.195-2.708-12.877-4.621-18.801-7.77-2.694-12.097-5.503-24.167-8.112-36.281 29.866 5.083 58.12 18.368 80.454 38.945 25.562 23.3 42.55 55.38 48.468 89.409 1.42 15.397 1.043 31.313.312 46.762-5.74 36.889-24.843 71.562-53.988 95.064-7.425 4.201-10.977 9.408-6.225 17.343 24.447 76.846 48.951 153.713 73.25 230.583H153.29m12.628-97c1.947-5.453.787-14.472 1.296-21.82-.325-113.261.681-226.533-.565-339.787l-.766-48.754c-8.113 29.968-13.37 60.958-12.11 92.098-.67 75.192-.396 150.433-1.657 225.595-1.704 19.98-4.188 39.927-9.155 59.386 9.212 9.729 14.996 21.807 21.661 33.282h1.284z" style="fill:#ffffff"/></svg>